<svg width="16" height="16" viewBox="0 0 16 16" fill="none" xmlns="http://www.w3.org/2000/svg">
<rect x="0.5" y="0.5" width="15" height="15" rx="1.5" fill="#3D91B5"/>
<rect x="0.5" y="0.5" width="15" height="15" rx="1.5" stroke="#163A50"/>
<mask id="path-2-outside-1_2110_3011" maskUnits="userSpaceOnUse" x="4" y="3" width="8" height="11" fill="black">
<rect fill="white" x="4" y="3" width="8" height="11"/>
<path d="M4.99947 13V4.27273H8.27219C8.94265 4.27273 9.50515 4.39773 9.95969 4.64773C10.4171 4.89773 10.7623 5.24148 10.9952 5.67898C11.231 6.11364 11.3489 6.60795 11.3489 7.16193C11.3489 7.72159 11.231 8.21875 10.9952 8.65341C10.7594 9.08807 10.4114 9.4304 9.95117 9.6804C9.49094 9.92756 8.92418 10.0511 8.25089 10.0511H6.08185V8.75142H8.03782C8.42987 8.75142 8.75089 8.68324 9.00089 8.54688C9.25089 8.41051 9.43555 8.22301 9.55487 7.98438C9.67702 7.74574 9.7381 7.47159 9.7381 7.16193C9.7381 6.85227 9.67702 6.57955 9.55487 6.34375C9.43555 6.10795 9.24947 5.92472 8.99663 5.79403C8.74663 5.66051 8.42418 5.59375 8.0293 5.59375H6.58043V13H4.99947Z"/>
</mask>
<path d="M4.99947 13V4.27273H8.27219C8.94265 4.27273 9.50515 4.39773 9.95969 4.64773C10.4171 4.89773 10.7623 5.24148 10.9952 5.67898C11.231 6.11364 11.3489 6.60795 11.3489 7.16193C11.3489 7.72159 11.231 8.21875 10.9952 8.65341C10.7594 9.08807 10.4114 9.4304 9.95117 9.6804C9.49094 9.92756 8.92418 10.0511 8.25089 10.0511H6.08185V8.75142H8.03782C8.42987 8.75142 8.75089 8.68324 9.00089 8.54688C9.25089 8.41051 9.43555 8.22301 9.55487 7.98438C9.67702 7.74574 9.7381 7.47159 9.7381 7.16193C9.7381 6.85227 9.67702 6.57955 9.55487 6.34375C9.43555 6.10795 9.24947 5.92472 8.99663 5.79403C8.74663 5.66051 8.42418 5.59375 8.0293 5.59375H6.58043V13H4.99947Z" fill="white"/>
<path d="M4.99947 13H4.49947V13.5H4.99947V13ZM4.99947 4.27273V3.77273H4.49947V4.27273H4.99947ZM9.95969 4.64773L9.71873 5.08584L9.71989 5.08647L9.95969 4.64773ZM10.9952 5.67898L10.5539 5.91398L10.5557 5.9174L10.9952 5.67898ZM10.9952 8.65341L11.4347 8.89183L11.4347 8.89183L10.9952 8.65341ZM9.95117 9.6804L10.1877 10.1209L10.1898 10.1198L9.95117 9.6804ZM6.08185 10.0511H5.58185V10.5511H6.08185V10.0511ZM6.08185 8.75142V8.25142H5.58185V8.75142H6.08185ZM9.00089 8.54688L9.24031 8.98582L9.24031 8.98582L9.00089 8.54688ZM9.55487 7.98438L9.10977 7.75653L9.10765 7.76077L9.55487 7.98438ZM9.55487 6.34375L9.10871 6.56951L9.11091 6.57375L9.55487 6.34375ZM8.99663 5.79403L8.76105 6.23511L8.76705 6.23821L8.99663 5.79403ZM6.58043 5.59375V5.09375H6.08043V5.59375H6.58043ZM6.58043 13V13.5H7.08043V13H6.58043ZM5.49947 13V4.27273H4.49947V13H5.49947ZM4.99947 4.77273H8.27219V3.77273H4.99947V4.77273ZM8.27219 4.77273C8.88237 4.77273 9.3565 4.88661 9.71874 5.08583L10.2007 4.20962C9.6538 3.90885 9.00292 3.77273 8.27219 3.77273V4.77273ZM9.71989 5.08647C10.0963 5.29221 10.3692 5.56716 10.5539 5.91397L11.4365 5.44398C11.1553 4.91579 10.7379 4.50324 10.1995 4.20899L9.71989 5.08647ZM10.5557 5.9174C10.7472 6.2704 10.8489 6.68104 10.8489 7.16193H11.8489C11.8489 6.53486 11.7148 5.95687 11.4347 5.44056L10.5557 5.9174ZM10.8489 7.16193C10.8489 7.64944 10.7468 8.06272 10.5557 8.41499L11.4347 8.89183C11.7152 8.37478 11.8489 7.79374 11.8489 7.16193H10.8489ZM10.5557 8.41499C10.3688 8.75953 10.093 9.03432 9.71251 9.24104L10.1898 10.1198C10.7298 9.82647 11.15 9.4166 11.4347 8.89183L10.5557 8.41499ZM9.71461 9.2399C9.34512 9.43833 8.86481 9.55114 8.25089 9.55114V10.5511C8.98355 10.5511 9.63677 10.4168 10.1877 10.1209L9.71461 9.2399ZM8.25089 9.55114H6.08185V10.5511H8.25089V9.55114ZM6.58185 10.0511V8.75142H5.58185V10.0511H6.58185ZM6.08185 9.25142H8.03782V8.25142H6.08185V9.25142ZM8.03782 9.25142C8.48354 9.25142 8.89441 9.1745 9.24031 8.98582L8.76146 8.10793C8.60736 8.19198 8.37619 8.25142 8.03782 8.25142V9.25142ZM9.24031 8.98582C9.57357 8.80405 9.83397 8.54421 10.0021 8.20798L9.10765 7.76077C9.03713 7.90181 8.92821 8.01697 8.76146 8.10793L9.24031 8.98582ZM9.99994 8.21221C10.1634 7.89285 10.2381 7.53849 10.2381 7.16193H9.2381C9.2381 7.40469 9.19063 7.59863 9.10979 7.75654L9.99994 8.21221ZM10.2381 7.16193C10.2381 6.78553 10.1635 6.43156 9.99882 6.11375L9.11091 6.57375C9.19057 6.72753 9.2381 6.91901 9.2381 7.16193H10.2381ZM10.001 6.118C9.83052 5.78109 9.56479 5.52486 9.2262 5.34985L8.76705 6.23821C8.93415 6.32458 9.04058 6.43482 9.10873 6.5695L10.001 6.118ZM9.23218 5.353C8.88683 5.16855 8.47579 5.09375 8.0293 5.09375V6.09375C8.37258 6.09375 8.60642 6.15247 8.76107 6.23507L9.23218 5.353ZM8.0293 5.09375H6.58043V6.09375H8.0293V5.09375ZM6.08043 5.59375V13H7.08043V5.59375H6.08043ZM6.58043 12.5H4.99947V13.5H6.58043V12.5Z" fill="#136BA6" mask="url(#path-2-outside-1_2110_3011)"/>
</svg>
