<svg width="16" height="16" viewBox="0 0 16 16" fill="none" xmlns="http://www.w3.org/2000/svg">
<rect x="0.5" y="0.5" width="15" height="15" rx="1.5" fill="#3D91B5"/>
<rect x="0.5" y="0.5" width="15" height="15" rx="1.5" stroke="#163A50"/>
<mask id="path-2-outside-1_2127_4078" maskUnits="userSpaceOnUse" x="4" y="3" width="9" height="11" fill="black">
<rect fill="white" x="4" y="3" width="9" height="11"/>
<path d="M7.47053 13H4.51314V4.27273H7.53018C8.39666 4.27273 9.14098 4.44744 9.76314 4.79688C10.3881 5.14347 10.8683 5.64205 11.2035 6.29261C11.5387 6.94318 11.7063 7.72159 11.7063 8.62784C11.7063 9.53693 11.5373 10.3182 11.1992 10.9716C10.864 11.625 10.3796 12.1264 9.74609 12.4759C9.11541 12.8253 8.35689 13 7.47053 13ZM6.09411 11.6321H7.39382C8.00178 11.6321 8.50888 11.5213 8.91513 11.2997C9.32138 11.0753 9.62678 10.7415 9.83132 10.2983C10.0359 9.85227 10.1381 9.29545 10.1381 8.62784C10.1381 7.96023 10.0359 7.40625 9.83132 6.96591C9.62678 6.52273 9.32422 6.19176 8.92365 5.97301C8.52592 5.75142 8.03161 5.64062 7.4407 5.64062H6.09411V11.6321Z"/>
</mask>
<path d="M7.47053 13H4.51314V4.27273H7.53018C8.39666 4.27273 9.14098 4.44744 9.76314 4.79688C10.3881 5.14347 10.8683 5.64205 11.2035 6.29261C11.5387 6.94318 11.7063 7.72159 11.7063 8.62784C11.7063 9.53693 11.5373 10.3182 11.1992 10.9716C10.864 11.625 10.3796 12.1264 9.74609 12.4759C9.11541 12.8253 8.35689 13 7.47053 13ZM6.09411 11.6321H7.39382C8.00178 11.6321 8.50888 11.5213 8.91513 11.2997C9.32138 11.0753 9.62678 10.7415 9.83132 10.2983C10.0359 9.85227 10.1381 9.29545 10.1381 8.62784C10.1381 7.96023 10.0359 7.40625 9.83132 6.96591C9.62678 6.52273 9.32422 6.19176 8.92365 5.97301C8.52592 5.75142 8.03161 5.64062 7.4407 5.64062H6.09411V11.6321Z" fill="white"/>
<path d="M4.51314 13H4.01314V13.5H4.51314V13ZM4.51314 4.27273V3.77273H4.01314V4.27273H4.51314ZM9.76314 4.79688L9.51829 5.23283L9.52066 5.23414L9.76314 4.79688ZM11.2035 6.29261L10.759 6.52164V6.52164L11.2035 6.29261ZM11.1992 10.9716L10.7551 10.7418L10.7544 10.7434L11.1992 10.9716ZM9.74609 12.4759L9.50461 12.038L9.50377 12.0385L9.74609 12.4759ZM6.09411 11.6321H5.59411V12.1321H6.09411V11.6321ZM8.91513 11.2997L9.15456 11.7387L9.15691 11.7374L8.91513 11.2997ZM9.83132 10.2983L10.2853 10.5078L10.2858 10.5067L9.83132 10.2983ZM9.83132 6.96591L9.37734 7.17544L9.37786 7.17655L9.83132 6.96591ZM8.92365 5.97301L8.68029 6.40981L8.68401 6.41184L8.92365 5.97301ZM6.09411 5.64062V5.14062H5.59411V5.64062H6.09411ZM7.47053 12.5H4.51314V13.5H7.47053V12.5ZM5.01314 13V4.27273H4.01314V13H5.01314ZM4.51314 4.77273H7.53018V3.77273H4.51314V4.77273ZM7.53018 4.77273C8.32919 4.77273 8.98538 4.93351 9.51829 5.23282L10.008 4.36093C9.29659 3.96137 8.46414 3.77273 7.53018 3.77273V4.77273ZM9.52066 5.23414C10.057 5.53159 10.4679 5.95668 10.759 6.52164L11.6479 6.06359C11.2686 5.32741 10.7192 4.75534 10.0056 4.35961L9.52066 5.23414ZM10.759 6.52164C11.0501 7.08648 11.2063 7.78262 11.2063 8.62784H12.2063C12.2063 7.66056 12.0273 6.79988 11.6479 6.06359L10.759 6.52164ZM11.2063 8.62784C11.2063 9.4755 11.0488 10.1742 10.7551 10.7418L11.6433 11.2014C12.0258 10.4621 12.2063 9.59836 12.2063 8.62784H11.2063ZM10.7544 10.7434C10.4638 11.3096 10.0496 11.7374 9.50461 12.038L9.98758 12.9137C10.7096 12.5154 11.2642 11.9404 11.6441 11.1998L10.7544 10.7434ZM9.50377 12.0385C8.96244 12.3384 8.29136 12.5 7.47053 12.5V13.5C8.42242 13.5 9.26839 13.3121 9.98841 12.9132L9.50377 12.0385ZM6.09411 12.1321H7.39382V11.1321H6.09411V12.1321ZM7.39382 12.1321C8.06005 12.1321 8.6554 12.0109 9.15455 11.7387L8.6757 10.8608C8.36235 11.0317 7.9435 11.1321 7.39382 11.1321V12.1321ZM9.15691 11.7374C9.66139 11.4587 10.0386 11.0424 10.2853 10.5078L9.37734 10.0888C9.21497 10.4406 8.98136 10.6919 8.67335 10.8621L9.15691 11.7374ZM10.2858 10.5067C10.5291 9.97621 10.6381 9.34291 10.6381 8.62784H9.63814C9.63814 9.248 9.54263 9.72834 9.37683 10.0899L10.2858 10.5067ZM10.6381 8.62784C10.6381 7.91314 10.5292 7.28148 10.2848 6.75527L9.37786 7.17655C9.54251 7.53102 9.63814 8.00731 9.63814 8.62784H10.6381ZM10.2853 6.75638C10.0391 6.22293 9.66479 5.80805 9.1633 5.53418L8.68401 6.41184C8.98365 6.57547 9.21446 6.82252 9.37734 7.17544L10.2853 6.75638ZM9.167 5.53623C8.67593 5.26263 8.0921 5.14062 7.4407 5.14062V6.14062C7.97111 6.14062 8.37592 6.24021 8.6803 6.4098L9.167 5.53623ZM7.4407 5.14062H6.09411V6.14062H7.4407V5.14062ZM5.59411 5.64062V11.6321H6.59411V5.64062H5.59411Z" fill="#136BA6" mask="url(#path-2-outside-1_2127_4078)"/>
</svg>
