<svg width="82" height="16" viewBox="0 0 82 16" fill="none" xmlns="http://www.w3.org/2000/svg">
<path d="M8.00016 11.514L12.1202 14.0007L11.0268 9.31398L14.6668 6.16065L9.8735 5.75398L8.00016 1.33398L6.12683 5.75398L1.3335 6.16065L4.9735 9.31398L3.88016 14.0007L8.00016 11.514Z" fill="#2E624B"/>
<path d="M24.0002 11.514L28.1202 14.0007L27.0268 9.31398L30.6668 6.16065L25.8735 5.75398L24.0002 1.33398L22.1268 5.75398L17.3335 6.16065L20.9735 9.31398L19.8802 14.0007L24.0002 11.514Z" fill="#2E624B"/>
<path d="M40.0002 11.514L44.1202 14.0007L43.0268 9.31398L46.6668 6.16065L41.8735 5.75398L40.0002 1.33398L38.1268 5.75398L33.3335 6.16065L36.9735 9.31398L35.8802 14.0007L40.0002 11.514Z" fill="#2E624B"/>
<path d="M56.0002 11.514L60.1202 14.0007L59.0268 9.31398L62.6668 6.16065L57.8735 5.75398L56.0002 1.33398L54.1268 5.75398L49.3335 6.16065L52.9735 9.31398L51.8802 14.0007L56.0002 11.514Z" fill="#2E624B"/>
<path d="M72.0002 11.514L76.1202 14.0007L75.0268 9.31398L78.6668 6.16065L73.8735 5.75398L72.0002 1.33398L70.1268 5.75398L65.3335 6.16065L68.9735 9.31398L67.8802 14.0007L72.0002 11.514Z" fill="#E8EAED"/>
</svg>
