<svg width="83" height="16" viewBox="0 0 83 16" fill="none" xmlns="http://www.w3.org/2000/svg">
<path d="M8.50016 11.513L12.6202 13.9997L11.5268 9.31301L15.1668 6.15967L10.3735 5.75301L8.50016 1.33301L6.62683 5.75301L1.8335 6.15967L5.4735 9.31301L4.38016 13.9997L8.50016 11.513Z" fill="#2E624B"/>
<path d="M24.5002 11.513L28.6202 13.9997L27.5268 9.31301L31.1668 6.15967L26.3735 5.75301L24.5002 1.33301L22.6268 5.75301L17.8335 6.15967L21.4735 9.31301L20.3802 13.9997L24.5002 11.513Z" fill="#2E624B"/>
<path d="M40.5002 11.513L44.6202 13.9997L43.5268 9.31301L47.1668 6.15967L42.3735 5.75301L40.5002 1.33301L38.6268 5.75301L33.8335 6.15967L37.4735 9.31301L36.3802 13.9997L40.5002 11.513Z" fill="#2E624B"/>
<path d="M56.5002 11.513L60.6202 13.9997L59.5268 9.31301L63.1668 6.15967L58.3735 5.75301L56.5002 1.33301L54.6268 5.75301L49.8335 6.15967L53.4735 9.31301L52.3802 13.9997L56.5002 11.513Z" fill="#2E624B"/>
<path d="M72.5002 11.513L76.6202 13.9997L75.5268 9.31301L79.1668 6.15967L74.3735 5.75301L72.5002 1.33301L70.6268 5.75301L65.8335 6.15967L69.4735 9.31301L68.3802 13.9997L72.5002 11.513Z" fill="#E8EAED"/>
</svg>
