<svg width="24" height="24" viewBox="0 0 24 24" fill="none" xmlns="http://www.w3.org/2000/svg">
<path d="M20.25 10.5005C20.4489 10.5005 20.6397 10.4214 20.7803 10.2808C20.921 10.1401 21 9.94937 21 9.75045V3.75195C21 3.55304 20.921 3.36228 20.7803 3.22162C20.6397 3.08097 20.4489 3.00195 20.25 3.00195H14.25C14.0511 3.00195 13.8603 3.08097 13.7197 3.22162C13.579 3.36228 13.5 3.55304 13.5 3.75195V9.75045C13.5 9.94937 13.579 10.1401 13.7197 10.2808C13.8603 10.4214 14.0511 10.5005 14.25 10.5005H20.25ZM9.75 10.5005C9.94891 10.5005 10.1397 10.4214 10.2803 10.2808C10.421 10.1401 10.5 9.94937 10.5 9.75045V3.75195C10.5 3.55304 10.421 3.36228 10.2803 3.22162C10.1397 3.08097 9.94891 3.00195 9.75 3.00195H3.7515C3.55259 3.00195 3.36182 3.08097 3.22117 3.22162C3.08052 3.36228 3.0015 3.55304 3.0015 3.75195V9.75045C3.0015 9.94937 3.08052 10.1401 3.22117 10.2808C3.36182 10.4214 3.55259 10.5005 3.7515 10.5005H9.75ZM20.25 21.0005C20.4489 21.0005 20.6397 20.9214 20.7803 20.7808C20.921 20.6401 21 20.4494 21 20.2505V14.2505C21 14.0515 20.921 13.8608 20.7803 13.7201C20.6397 13.5795 20.4489 13.5005 20.25 13.5005H14.25C14.0511 13.5005 13.8603 13.5795 13.7197 13.7201C13.579 13.8608 13.5 14.0515 13.5 14.2505V20.2505C13.5 20.4494 13.579 20.6401 13.7197 20.7808C13.8603 20.9214 14.0511 21.0005 14.25 21.0005H20.25ZM9.75 21.0005C9.94891 21.0005 10.1397 20.9214 10.2803 20.7808C10.421 20.6401 10.5 20.4494 10.5 20.2505V14.2505C10.5 14.0515 10.421 13.8608 10.2803 13.7201C10.1397 13.5795 9.94891 13.5005 9.75 13.5005H3.7515C3.55259 13.5005 3.36182 13.5795 3.22117 13.7201C3.08052 13.8608 3.0015 14.0515 3.0015 14.2505V20.2505C3.0015 20.4494 3.08052 20.6401 3.22117 20.7808C3.36182 20.9214 3.55259 21.0005 3.7515 21.0005H9.75Z" fill="#4C9E77"/>
</svg>
