<svg width="14" height="18" viewBox="0 0 14 18" fill="none" xmlns="http://www.w3.org/2000/svg">
<path d="M8 6C8 6.26522 7.89464 6.51957 7.70711 6.70711C7.51957 6.89464 7.26522 7 7 7C6.73478 7 6.48043 6.89464 6.29289 6.70711C6.10536 6.51957 6 6.26522 6 6C6 5.73478 6.10536 5.48043 6.29289 5.29289C6.48043 5.10536 6.73478 5 7 5C7.26522 5 7.51957 5.10536 7.70711 5.29289C7.89464 5.48043 8 5.73478 8 6Z" stroke="#5F6368" stroke-width="2" stroke-linejoin="round"/>
<path d="M12.5 6.5C12.5 9.538 10.5 13 7 17C3.5 13 1.5 9.538 1.5 6.5C1.5 5.04131 2.07946 3.64236 3.11091 2.61091C4.14236 1.57946 5.54131 1 7 1C8.45869 1 9.85764 1.57946 10.8891 2.61091C11.9205 3.64236 12.5 5.04131 12.5 6.5Z" stroke="#5F6368" stroke-width="2" stroke-linejoin="round"/>
</svg>
