<svg width="15" height="16" viewBox="0 0 15 16" fill="none" xmlns="http://www.w3.org/2000/svg">
<path fill-rule="evenodd" clip-rule="evenodd" d="M13.1248 12.375C13.2841 12.3752 13.4373 12.4362 13.5532 12.5455C13.669 12.6549 13.7387 12.8043 13.748 12.9634C13.7574 13.1224 13.7056 13.279 13.6034 13.4011C13.5011 13.5233 13.3561 13.6018 13.1979 13.6206L13.1248 13.625H1.8748C1.7155 13.6248 1.56228 13.5638 1.44644 13.4545C1.33061 13.3451 1.2609 13.1957 1.25156 13.0366C1.24223 12.8776 1.29397 12.721 1.39621 12.5989C1.49846 12.4767 1.64349 12.3982 1.80167 12.3794L1.8748 12.375H13.1248ZM11.8748 3C12.1902 2.9999 12.4939 3.119 12.7251 3.33344C12.9564 3.54787 13.098 3.84178 13.1217 4.15625L13.1248 4.25V10.5C13.1249 10.8154 13.0058 11.1191 12.7914 11.3503C12.5769 11.5816 12.283 11.7232 11.9685 11.7469L11.8748 11.75H3.1248C2.80944 11.7501 2.50569 11.631 2.27445 11.4166C2.04322 11.2021 1.90157 10.9082 1.87792 10.5937L1.8748 10.5V4.25C1.8747 3.93464 1.9938 3.6309 2.20823 3.39966C2.42266 3.16842 2.71657 3.02678 3.03105 3.00313L3.1248 3H11.8748ZM11.8748 4.25H3.1248V10.5H11.8748V4.25Z" fill="black"/>
</svg>
