<svg width="16" height="16" viewBox="0 0 16 16" fill="none" xmlns="http://www.w3.org/2000/svg">
<path fill-rule="evenodd" clip-rule="evenodd" d="M13.6248 12.375C13.7841 12.3752 13.9373 12.4362 14.0532 12.5455C14.169 12.6549 14.2387 12.8043 14.248 12.9634C14.2574 13.1224 14.2056 13.279 14.1034 13.4011C14.0011 13.5233 13.8561 13.6018 13.6979 13.6206L13.6248 13.625H2.3748C2.2155 13.6248 2.06228 13.5638 1.94644 13.4545C1.83061 13.3451 1.7609 13.1957 1.75156 13.0366C1.74223 12.8776 1.79397 12.721 1.89621 12.5989C1.99846 12.4767 2.14349 12.3982 2.30167 12.3794L2.3748 12.375H13.6248ZM12.3748 3C12.6902 2.9999 12.9939 3.119 13.2251 3.33344C13.4564 3.54787 13.598 3.84178 13.6217 4.15625L13.6248 4.25V10.5C13.6249 10.8154 13.5058 11.1191 13.2914 11.3503C13.0769 11.5816 12.783 11.7232 12.4685 11.7469L12.3748 11.75H3.6248C3.30944 11.7501 3.00569 11.631 2.77445 11.4166C2.54322 11.2021 2.40157 10.9082 2.37792 10.5937L2.3748 10.5V4.25C2.3747 3.93464 2.4938 3.6309 2.70823 3.39966C2.92266 3.16842 3.21657 3.02678 3.53105 3.00313L3.6248 3H12.3748ZM12.3748 4.25H3.6248V10.5H12.3748V4.25Z" fill="black"/>
</svg>
