<svg width="24" height="24" viewBox="0 0 24 24" fill="none" xmlns="http://www.w3.org/2000/svg">
<path fill-rule="evenodd" clip-rule="evenodd" d="M5.65816 3.454C6.16416 3.274 6.67816 3.25 7.10316 3.25H7.71516C8.74816 3.25 9.75516 3.57 10.5982 4.167L11.1002 4.522C11.3634 4.70795 11.6778 4.80779 12.0002 4.80779C12.3225 4.80779 12.6369 4.70795 12.9002 4.522L13.4022 4.167C14.2454 3.57096 15.2525 3.25062 16.2852 3.25H16.8972C17.3232 3.25 17.8372 3.274 18.3422 3.454C19.7852 3.966 20.9262 5.142 21.6782 7.045C22.4222 8.929 22.8042 11.565 22.7442 15.115C22.7312 15.865 22.6382 16.705 22.3492 17.461C22.0582 18.228 21.5472 18.951 20.6892 19.361C20.1537 19.618 19.5671 19.751 18.9732 19.75C18.2848 19.7584 17.6093 19.5636 17.0312 19.19C16.5592 18.88 16.1462 18.48 15.7932 18.138L15.6662 18.016C15.2622 17.626 14.9212 17.323 14.5432 17.126C14.0663 16.8792 13.5371 16.7502 13.0002 16.75H11.0002C10.4627 16.7504 9.93327 16.8797 9.45616 17.127C9.07816 17.323 8.73716 17.627 8.33316 18.017L8.20616 18.139C7.85316 18.48 7.44016 18.881 6.96816 19.191C6.38987 19.5642 5.71437 19.7587 5.02616 19.75C4.43211 19.7507 3.84555 19.6174 3.31016 19.36C2.45116 18.95 1.94116 18.228 1.65016 17.461C1.36116 16.705 1.26816 15.865 1.25516 15.115C1.19516 11.565 1.57716 8.929 2.32116 7.045C3.07316 5.142 4.21516 3.965 5.65816 3.454ZM7.10316 4.75C6.71916 4.75 6.41616 4.777 6.16016 4.867C5.22016 5.201 4.35116 5.992 3.71716 7.597C3.07616 9.22 2.69716 11.633 2.75616 15.09C2.76716 15.752 2.85116 16.398 3.05216 16.927C3.25016 17.447 3.54216 17.809 3.95816 18.007C4.29145 18.168 4.657 18.2511 5.02716 18.25C5.51216 18.25 5.87516 18.114 6.14716 17.936C6.49216 17.709 6.80016 17.413 7.16916 17.056L7.29316 16.936C7.69416 16.55 8.17316 16.102 8.76616 15.796C9.45672 15.4377 10.2232 15.2505 11.0012 15.25H13.0002C13.7782 15.25 14.5442 15.437 15.2352 15.795C15.8272 16.102 16.3072 16.55 16.7082 16.935L16.8322 17.055C17.2022 17.413 17.5092 17.709 17.8552 17.935C18.1262 18.114 18.4892 18.25 18.9752 18.25C19.3822 18.25 19.7372 18.154 20.0432 18.008C20.4592 17.808 20.7512 17.447 20.9492 16.928C21.1502 16.398 21.2342 15.752 21.2452 15.09C21.3032 11.633 20.9252 9.22 20.2842 7.596C19.6502 5.992 18.7812 5.201 17.8412 4.867C17.5852 4.777 17.2812 4.75 16.8982 4.75H16.2862C15.5642 4.75 14.8592 4.974 14.2692 5.391L13.7672 5.747C13.2506 6.11203 12.6337 6.30803 12.0012 6.30803C11.3687 6.30803 10.7517 6.11203 10.2352 5.747L9.73316 5.391C9.14308 4.97431 8.43853 4.7504 7.71616 4.75H7.10316ZM7.50016 8.25C7.69907 8.25 7.88983 8.32902 8.03049 8.46967C8.17114 8.61032 8.25016 8.80109 8.25016 9V9.75H9.00016C9.19907 9.75 9.38983 9.82902 9.53049 9.96967C9.67114 10.1103 9.75016 10.3011 9.75016 10.5C9.75016 10.6989 9.67114 10.8897 9.53049 11.0303C9.38983 11.171 9.19907 11.25 9.00016 11.25H8.25016V12C8.25016 12.1989 8.17114 12.3897 8.03049 12.5303C7.88983 12.671 7.69907 12.75 7.50016 12.75C7.30124 12.75 7.11048 12.671 6.96983 12.5303C6.82917 12.3897 6.75016 12.1989 6.75016 12V11.25H6.00016C5.80124 11.25 5.61048 11.171 5.46983 11.0303C5.32917 10.8897 5.25016 10.6989 5.25016 10.5C5.25016 10.3011 5.32917 10.1103 5.46983 9.96967C5.61048 9.82902 5.80124 9.75 6.00016 9.75H6.75016V9C6.75016 8.80109 6.82917 8.61032 6.96983 8.46967C7.11048 8.32902 7.30124 8.25 7.50016 8.25Z" fill="#5F6368"/>
<path d="M19 10.25C19 10.4489 18.921 10.6397 18.7803 10.7803C18.6397 10.921 18.4489 11 18.25 11C18.0511 11 17.8603 10.921 17.7197 10.7803C17.579 10.6397 17.5 10.4489 17.5 10.25C17.5 10.0511 17.579 9.86032 17.7197 9.71967C17.8603 9.57902 18.0511 9.5 18.25 9.5C18.4489 9.5 18.6397 9.57902 18.7803 9.71967C18.921 9.86032 19 10.0511 19 10.25ZM16 10.25C16 10.4489 15.921 10.6397 15.7803 10.7803C15.6397 10.921 15.4489 11 15.25 11C15.0511 11 14.8603 10.921 14.7197 10.7803C14.579 10.6397 14.5 10.4489 14.5 10.25C14.5 10.0511 14.579 9.86032 14.7197 9.71967C14.8603 9.57902 15.0511 9.5 15.25 9.5C15.4489 9.5 15.6397 9.57902 15.7803 9.71967C15.921 9.86032 16 10.0511 16 10.25ZM16.75 8C16.9489 8 17.1397 8.07902 17.2803 8.21967C17.421 8.36032 17.5 8.55109 17.5 8.75C17.5 8.94891 17.421 9.13968 17.2803 9.28033C17.1397 9.42098 16.9489 9.5 16.75 9.5C16.5511 9.5 16.3603 9.42098 16.2197 9.28033C16.079 9.13968 16 8.94891 16 8.75C16 8.55109 16.079 8.36032 16.2197 8.21967C16.3603 8.07902 16.5511 8 16.75 8ZM16.75 11C16.8485 11 16.946 11.0194 17.037 11.0571C17.128 11.0948 17.2107 11.15 17.2803 11.2197C17.35 11.2893 17.4052 11.372 17.4429 11.463C17.4806 11.554 17.5 11.6515 17.5 11.75C17.5 11.8485 17.4806 11.946 17.4429 12.037C17.4052 12.128 17.35 12.2107 17.2803 12.2803C17.2107 12.35 17.128 12.4052 17.037 12.4429C16.946 12.4806 16.8485 12.5 16.75 12.5C16.5511 12.5 16.3603 12.421 16.2197 12.2803C16.079 12.1397 16 11.9489 16 11.75C16 11.5511 16.079 11.3603 16.2197 11.2197C16.3603 11.079 16.5511 11 16.75 11Z" fill="#5F6368"/>
</svg>
