<svg width="24" height="24" viewBox="0 0 24 24" fill="none" xmlns="http://www.w3.org/2000/svg">
<path d="M13.7282 3.44375L15.4882 6.99275C15.7282 7.48675 16.3682 7.96075 16.9082 8.05075L20.0972 8.58575C22.1372 8.92875 22.6172 10.4207 21.1472 11.8927L18.6672 14.3927C18.2472 14.8157 18.0172 15.6328 18.1472 16.2178L18.8572 19.3127C19.4172 21.7627 18.1272 22.7098 15.9772 21.4298L12.9872 19.6448C12.4472 19.3228 11.5572 19.3228 11.0072 19.6448L8.01919 21.4298C5.87919 22.7098 4.57919 21.7517 5.13919 19.3127L5.84919 16.2178C5.97919 15.6328 5.74919 14.8157 5.32919 14.3927L2.84919 11.8927C1.39019 10.4197 1.86019 8.92875 3.89919 8.58575L7.08919 8.05075C7.61919 7.96075 8.25919 7.48675 8.49919 6.99275L10.2592 3.44375C11.2192 1.51875 12.7792 1.51875 13.7292 3.44375" stroke="#5F6368" stroke-width="1.5" stroke-linecap="round" stroke-linejoin="round"/>
</svg>
