<svg width="40" height="40" viewBox="0 0 40 40" fill="none" xmlns="http://www.w3.org/2000/svg">
<path d="M19.7003 19.2002L4.30029 35.3002C4.80029 37.0002 6.40029 38.3002 8.30029 38.3002C9.10029 38.3002 9.80029 38.1002 10.4003 37.7002L27.8003 27.8002L19.7003 19.2002Z" fill="#EA4335"/>
<path d="M35.3004 16.4001L27.8004 12.1001L19.4004 19.5001L27.9004 27.8001L35.4004 23.6001C36.7004 22.9001 37.6004 21.5001 37.6004 20.0001C37.5004 18.5001 36.6004 17.1001 35.3004 16.4001Z" fill="#FBBC04"/>
<path d="M4.3002 4.7002C4.2002 5.0002 4.2002 5.4002 4.2002 5.8002V34.3002C4.2002 34.7002 4.2002 35.0002 4.3002 35.4002L20.3002 19.7002L4.3002 4.7002Z" fill="#4285F4"/>
<path d="M19.8003 20.0002L27.8003 12.1002L10.5003 2.3002C9.90029 1.9002 9.10029 1.7002 8.30029 1.7002C6.40029 1.7002 4.70029 3.0002 4.30029 4.7002L19.8003 20.0002Z" fill="#34A853"/>
</svg>
