<svg width="40" height="40" viewBox="0 0 40 40" fill="none" xmlns="http://www.w3.org/2000/svg">
<rect x="1.25" y="1.25" width="37.5" height="37.5" rx="3.75" fill="#3D91B5"/>
<rect x="1.25" y="1.25" width="37.5" height="37.5" rx="3.75" stroke="#163A50" stroke-width="2.5"/>
<mask id="path-2-outside-1_2127_4601" maskUnits="userSpaceOnUse" x="9.5" y="7.5" width="22" height="26" fill="black">
<rect fill="white" x="9.5" y="7.5" width="22" height="26"/>
<path d="M18.6763 31.5H11.2828V9.68182H18.8255C20.9917 9.68182 22.8525 10.1186 24.4078 10.9922C25.9703 11.8587 27.1706 13.1051 28.0087 14.7315C28.8468 16.358 29.2658 18.304 29.2658 20.5696C29.2658 22.8423 28.8432 24.7955 27.998 26.429C27.16 28.0625 25.949 29.3161 24.3652 30.1896C22.7885 31.0632 20.8922 31.5 18.6763 31.5ZM15.2353 28.0803H18.4846C20.0044 28.0803 21.2722 27.8033 22.2878 27.2493C23.3034 26.6882 24.0669 25.8537 24.5783 24.7457C25.0897 23.6307 25.3453 22.2386 25.3453 20.5696C25.3453 18.9006 25.0897 17.5156 24.5783 16.4148C24.0669 15.3068 23.3105 14.4794 22.3091 13.9325C21.3148 13.3786 20.079 13.1016 18.6017 13.1016H15.2353V28.0803Z"/>
</mask>
<path d="M18.6763 31.5H11.2828V9.68182H18.8255C20.9917 9.68182 22.8525 10.1186 24.4078 10.9922C25.9703 11.8587 27.1706 13.1051 28.0087 14.7315C28.8468 16.358 29.2658 18.304 29.2658 20.5696C29.2658 22.8423 28.8432 24.7955 27.998 26.429C27.16 28.0625 25.949 29.3161 24.3652 30.1896C22.7885 31.0632 20.8922 31.5 18.6763 31.5ZM15.2353 28.0803H18.4846C20.0044 28.0803 21.2722 27.8033 22.2878 27.2493C23.3034 26.6882 24.0669 25.8537 24.5783 24.7457C25.0897 23.6307 25.3453 22.2386 25.3453 20.5696C25.3453 18.9006 25.0897 17.5156 24.5783 16.4148C24.0669 15.3068 23.3105 14.4794 22.3091 13.9325C21.3148 13.3786 20.079 13.1016 18.6017 13.1016H15.2353V28.0803Z" fill="white"/>
<path d="M11.2828 31.5H10.0328V32.75H11.2828V31.5ZM11.2828 9.68182V8.43182H10.0328V9.68182H11.2828ZM24.4078 10.9922L23.7957 12.0821L23.8016 12.0854L24.4078 10.9922ZM28.0087 14.7315L26.8975 15.3041L26.8975 15.3041L28.0087 14.7315ZM27.998 26.429L26.8878 25.8546L26.8859 25.8584L27.998 26.429ZM24.3652 30.1896L23.7615 29.0951L23.7594 29.0962L24.3652 30.1896ZM15.2353 28.0803H13.9853V29.3303H15.2353V28.0803ZM22.2878 27.2493L22.8864 28.3467L22.8923 28.3434L22.2878 27.2493ZM24.5783 24.7457L25.7133 25.2696L25.7145 25.2668L24.5783 24.7457ZM24.5783 16.4148L23.4434 16.9386L23.4446 16.9414L24.5783 16.4148ZM22.3091 13.9325L21.7007 15.0245L21.71 15.0296L22.3091 13.9325ZM15.2353 13.1016V11.8516H13.9853V13.1016H15.2353ZM18.6763 30.25H11.2828V32.75H18.6763V30.25ZM12.5328 31.5V9.68182H10.0328V31.5H12.5328ZM11.2828 10.9318H18.8255V8.43182H11.2828V10.9318ZM18.8255 10.9318C20.823 10.9318 22.4634 11.3338 23.7957 12.0821L25.02 9.90232C23.2415 8.90343 21.1603 8.43182 18.8255 8.43182V10.9318ZM23.8016 12.0854C25.1426 12.829 26.1698 13.8917 26.8975 15.3041L29.1199 14.159C28.1715 12.3185 26.7981 10.8883 25.0141 9.89902L23.8016 12.0854ZM26.8975 15.3041C27.6252 16.7162 28.0158 18.4566 28.0158 20.5696H30.5158C30.5158 18.1514 30.0684 15.9997 29.1199 14.159L26.8975 15.3041ZM28.0158 20.5696C28.0158 22.6888 27.622 24.4356 26.8878 25.8546L29.1083 27.0034C30.0644 25.1553 30.5158 22.9959 30.5158 20.5696H28.0158ZM26.8859 25.8584C26.1596 27.2741 25.124 28.3436 23.7615 29.0951L24.969 31.2842C26.7741 30.2885 28.1604 28.8509 29.1102 26.9996L26.8859 25.8584ZM23.7594 29.0962C22.4061 29.8461 20.7284 30.25 18.6763 30.25V32.75C21.0561 32.75 23.171 32.2804 24.971 31.283L23.7594 29.0962ZM15.2353 29.3303H18.4846V26.8303H15.2353V29.3303ZM18.4846 29.3303C20.1501 29.3303 21.6385 29.0273 22.8864 28.3467L21.6893 26.1519C20.9059 26.5792 19.8588 26.8303 18.4846 26.8303V29.3303ZM22.8923 28.3434C24.1535 27.6467 25.0965 26.606 25.7133 25.2696L23.4434 24.2219C23.0374 25.1014 22.4534 25.7297 21.6834 26.1552L22.8923 28.3434ZM25.7145 25.2668C26.3228 23.9405 26.5953 22.3573 26.5953 20.5696H24.0953C24.0953 22.12 23.8566 23.3208 23.4421 24.2247L25.7145 25.2668ZM26.5953 20.5696C26.5953 18.7829 26.3231 17.2037 25.712 15.8882L23.4446 16.9414C23.8563 17.8275 24.0953 19.0183 24.0953 20.5696H26.5953ZM25.7133 15.8909C25.0977 14.5573 24.162 13.5201 22.9082 12.8355L21.71 15.0296C22.4591 15.4387 23.0361 16.0563 23.4434 16.9386L25.7133 15.8909ZM22.9175 12.8406C21.6898 12.1566 20.2302 11.8516 18.6017 11.8516V14.3516C19.9278 14.3516 20.9398 14.6005 21.7007 15.0245L22.9175 12.8406ZM18.6017 11.8516H15.2353V14.3516H18.6017V11.8516ZM13.9853 13.1016V28.0803H16.4853V13.1016H13.9853Z" fill="#136BA6" mask="url(#path-2-outside-1_2127_4601)"/>
</svg>
