<svg width="20" height="16" viewBox="0 0 20 16" fill="none" xmlns="http://www.w3.org/2000/svg">
<path d="M10.0002 0.5L19.1668 7.375L18.1668 8.70833L16.6668 7.58333V15.5H3.3335V7.58333L1.8335 8.70833L0.833496 7.375L10.0002 0.5ZM6.12516 8.04167C6.12516 8.77778 6.521 9.5625 7.31266 10.3958C8.10433 11.2292 9.00016 12.0972 10.0002 13C11.0002 12.0972 11.896 11.2292 12.6877 10.3958C13.4793 9.5625 13.8752 8.77778 13.8752 8.04167C13.8752 7.43056 13.6668 6.92361 13.2502 6.52083C12.8335 6.11806 12.3335 5.91667 11.7502 5.91667C11.3891 5.91667 11.0591 5.98972 10.7602 6.13583C10.4613 6.28194 10.2079 6.47278 10.0002 6.70833C9.79183 6.47222 9.53155 6.28139 9.21933 6.13583C8.90711 5.99028 8.58405 5.91722 8.25016 5.91667C7.66683 5.91667 7.16683 6.11806 6.75016 6.52083C6.3335 6.92361 6.12516 7.43056 6.12516 8.04167ZM15.0002 13.8333V6.33333L10.0002 2.58333L5.00016 6.33333V13.8333H15.0002Z" fill="#9AA0A6"/>
</svg>
