<svg width="20" height="14" viewBox="0 0 20 14" fill="none" xmlns="http://www.w3.org/2000/svg">
<path d="M18.3333 11.1673H15V5.33398H18.3333M19.1667 3.66732H14.1667C13.9457 3.66732 13.7337 3.75512 13.5774 3.9114C13.4211 4.06768 13.3333 4.27964 13.3333 4.50065V12.834C13.3333 13.055 13.4211 13.267 13.5774 13.4232C13.7337 13.5795 13.9457 13.6673 14.1667 13.6673H19.1667C19.3877 13.6673 19.5996 13.5795 19.7559 13.4232C19.9122 13.267 20 13.055 20 12.834V4.50065C20 4.27964 19.9122 4.06768 19.7559 3.9114C19.5996 3.75512 19.3877 3.66732 19.1667 3.66732ZM3.33333 2.00065H18.3333V0.333984H3.33333C2.89131 0.333984 2.46738 0.509579 2.15482 0.82214C1.84226 1.1347 1.66667 1.55862 1.66667 2.00065V11.1673H0V13.6673H11.6667V11.1673H3.33333V2.00065Z" fill="#9AA0A6"/>
</svg>
