<svg width="17" height="20" viewBox="0 0 17 20" fill="none" xmlns="http://www.w3.org/2000/svg">
<path d="M8.5 20C6.18333 19.4167 4.27067 18.0873 2.762 16.012C1.25333 13.9367 0.499334 11.6327 0.5 9.1V3L8.5 0L16.5 3V9.1C16.5 11.6333 15.746 13.9377 14.238 16.013C12.73 18.0883 10.8173 19.4173 8.5 20ZM8.5 17.9C10.2333 17.35 11.6667 16.25 12.8 14.6C13.9333 12.95 14.5 11.1167 14.5 9.1V4.375L8.5 2.125L2.5 4.375V9.1C2.5 11.1167 3.06667 12.95 4.2 14.6C5.33333 16.25 6.76667 17.35 8.5 17.9Z" fill="#5F6368"/>
</svg>
