<svg width="20" height="14" viewBox="0 0 20 14" fill="none" xmlns="http://www.w3.org/2000/svg">
<path d="M18.3333 11.1663H15V5.33301H18.3333M19.1667 3.66634H14.1667C13.9457 3.66634 13.7337 3.75414 13.5774 3.91042C13.4211 4.0667 13.3333 4.27866 13.3333 4.49967V12.833C13.3333 13.054 13.4211 13.266 13.5774 13.4223C13.7337 13.5785 13.9457 13.6663 14.1667 13.6663H19.1667C19.3877 13.6663 19.5996 13.5785 19.7559 13.4223C19.9122 13.266 20 13.054 20 12.833V4.49967C20 4.27866 19.9122 4.0667 19.7559 3.91042C19.5996 3.75414 19.3877 3.66634 19.1667 3.66634ZM3.33333 1.99967H18.3333V0.333008H3.33333C2.89131 0.333008 2.46738 0.508602 2.15482 0.821163C1.84226 1.13372 1.66667 1.55765 1.66667 1.99967V11.1663H0V13.6663H11.6667V11.1663H3.33333V1.99967Z" fill="#9AA0A6"/>
</svg>
