<svg width="17" height="14" viewBox="0 0 17 14" fill="none" xmlns="http://www.w3.org/2000/svg">
<path d="M8.793 0.299134C8.98053 0.111663 9.23484 0.00634766 9.5 0.00634766C9.76516 0.00634766 10.0195 0.111663 10.207 0.299134L16.207 6.29913C16.3945 6.48666 16.4998 6.74097 16.4998 7.00613C16.4998 7.2713 16.3945 7.52561 16.207 7.71313L10.207 13.7131C10.0184 13.8953 9.7658 13.9961 9.5036 13.9938C9.2414 13.9915 8.99059 13.8864 8.80518 13.701C8.61977 13.5155 8.5146 13.2647 8.51233 13.0025C8.51005 12.7403 8.61084 12.4877 8.793 12.2991L13.086 8.00613H1.5C1.23478 8.00613 0.98043 7.90078 0.792893 7.71324C0.605357 7.5257 0.5 7.27135 0.5 7.00613C0.5 6.74092 0.605357 6.48656 0.792893 6.29903C0.98043 6.11149 1.23478 6.00613 1.5 6.00613H13.086L8.793 1.71313C8.60553 1.52561 8.50021 1.2713 8.50021 1.00613C8.50021 0.74097 8.60553 0.486662 8.793 0.299134Z" fill="#5F6368"/>
</svg>
