<svg width="19" height="20" viewBox="0 0 19 20" fill="none" xmlns="http://www.w3.org/2000/svg">
<path d="M15.5 20C14.6667 20 13.9583 19.7083 13.375 19.125C12.7917 18.5417 12.5 17.8333 12.5 17C12.5 16.9 12.525 16.6667 12.575 16.3L5.55 12.2C5.28333 12.45 4.975 12.646 4.625 12.788C4.275 12.93 3.9 13.0007 3.5 13C2.66667 13 1.95833 12.7083 1.375 12.125C0.791667 11.5417 0.5 10.8333 0.5 10C0.5 9.16667 0.791667 8.45833 1.375 7.875C1.95833 7.29167 2.66667 7 3.5 7C3.9 7 4.275 7.071 4.625 7.213C4.975 7.355 5.28333 7.55067 5.55 7.8L12.575 3.7C12.5417 3.58333 12.521 3.471 12.513 3.363C12.505 3.255 12.5007 3.134 12.5 3C12.5 2.16667 12.7917 1.45833 13.375 0.875C13.9583 0.291667 14.6667 0 15.5 0C16.3333 0 17.0417 0.291667 17.625 0.875C18.2083 1.45833 18.5 2.16667 18.5 3C18.5 3.83333 18.2083 4.54167 17.625 5.125C17.0417 5.70833 16.3333 6 15.5 6C15.1 6 14.725 5.929 14.375 5.787C14.025 5.645 13.7167 5.44933 13.45 5.2L6.425 9.3C6.45833 9.41667 6.47933 9.52933 6.488 9.638C6.49667 9.74667 6.50067 9.86733 6.5 10C6.49933 10.1327 6.49533 10.2537 6.488 10.363C6.48067 10.4723 6.45967 10.5847 6.425 10.7L13.45 14.8C13.7167 14.55 14.025 14.3543 14.375 14.213C14.725 14.0717 15.1 14.0007 15.5 14C16.3333 14 17.0417 14.2917 17.625 14.875C18.2083 15.4583 18.5 16.1667 18.5 17C18.5 17.8333 18.2083 18.5417 17.625 19.125C17.0417 19.7083 16.3333 20 15.5 20ZM15.5 18C15.7833 18 16.021 17.9043 16.213 17.713C16.405 17.5217 16.5007 17.284 16.5 17C16.4993 16.716 16.4033 16.4787 16.212 16.288C16.0207 16.0973 15.7833 16.0013 15.5 16C15.2167 15.9987 14.9793 16.0947 14.788 16.288C14.5967 16.4813 14.5007 16.7187 14.5 17C14.4993 17.2813 14.5953 17.519 14.788 17.713C14.9807 17.907 15.218 18.0027 15.5 18ZM3.5 11C3.78333 11 4.021 10.904 4.213 10.712C4.405 10.52 4.50067 10.2827 4.5 10C4.49933 9.71733 4.40333 9.48 4.212 9.288C4.02067 9.096 3.78333 9 3.5 9C3.21667 9 2.97933 9.096 2.788 9.288C2.59667 9.48 2.50067 9.71733 2.5 10C2.49933 10.2827 2.59533 10.5203 2.788 10.713C2.98067 10.9057 3.218 11.0013 3.5 11ZM15.5 4C15.7833 4 16.021 3.904 16.213 3.712C16.405 3.52 16.5007 3.28267 16.5 3C16.4993 2.71733 16.4033 2.48 16.212 2.288C16.0207 2.096 15.7833 2 15.5 2C15.2167 2 14.9793 2.096 14.788 2.288C14.5967 2.48 14.5007 2.71733 14.5 3C14.4993 3.28267 14.5953 3.52033 14.788 3.713C14.9807 3.90567 15.218 4.00133 15.5 4Z" fill="#5F6368"/>
</svg>
