<svg width="23" height="16" viewBox="0 0 23 16" fill="none" xmlns="http://www.w3.org/2000/svg">
<path d="M6 16C4.48 16 3.18333 15.4767 2.11 14.43C1.03667 13.3767 0.5 12.0933 0.5 10.58C0.5 9.28 0.89 8.12 1.67 7.1C2.45667 6.08 3.48333 5.43 4.75 5.15C5.17 3.61667 6.00333 2.37667 7.25 1.43C8.50333 0.476667 9.92 0 11.5 0C13.4533 0 15.1067 0.68 16.46 2.04C17.82 3.39333 18.5 5.04667 18.5 7C19.6533 7.13333 20.6067 7.63333 21.36 8.5C22.12 9.35333 22.5 10.3533 22.5 11.5C22.5 12.7533 22.0633 13.8167 21.19 14.69C20.3167 15.5633 19.2533 16 18 16H12.5C11.9533 16 11.4833 15.8033 11.09 15.41C10.6967 15.0233 10.5 14.5533 10.5 14V8.85L8.9 10.4L7.5 9L11.5 5L15.5 9L14.1 10.4L12.5 8.85V14H18C18.7 14 19.29 13.7567 19.77 13.27C20.2567 12.79 20.5 12.2 20.5 11.5C20.5 10.8 20.2567 10.21 19.77 9.73C19.29 9.24333 18.7 9 18 9H16.5V7C16.5 5.62 16.0133 4.44 15.04 3.46C14.0667 2.48667 12.8867 2 11.5 2C10.12 2 8.94 2.48667 7.96 3.46C6.98667 4.44 6.5 5.62 6.5 7H6C5.03333 7 4.21 7.34333 3.53 8.03C2.84333 8.71 2.5 9.53333 2.5 10.5C2.5 11.4667 2.84333 12.3 3.53 13C4.21 13.6667 5.03333 14 6 14H8.5V16" fill="#5F6368"/>
</svg>
