<svg width="10" height="14" viewBox="0 0 10 14" fill="none" xmlns="http://www.w3.org/2000/svg">
<path d="M3.75 12H6.25V11.375H3.75V12ZM1.875 13.875C1.53125 13.875 1.23708 13.7527 0.9925 13.5081C0.747917 13.2635 0.625417 12.9692 0.625 12.625V1.375C0.625 1.03125 0.7475 0.737083 0.9925 0.4925C1.2375 0.247917 1.53167 0.125417 1.875 0.125H8.125C8.46875 0.125 8.76313 0.2475 9.00813 0.4925C9.25313 0.7375 9.37542 1.03167 9.375 1.375V12.625C9.375 12.9688 9.25271 13.2631 9.00813 13.5081C8.76354 13.7531 8.46917 13.8754 8.125 13.875H1.875ZM1.875 10.75V12.625H8.125V10.75H1.875ZM1.875 9.5H8.125V3.25H1.875V9.5ZM1.875 2H8.125V1.375H1.875V2Z" fill="#2E624B"/>
</svg>
