<svg width="9" height="14" viewBox="0 0 9 14" fill="none" xmlns="http://www.w3.org/2000/svg">
<path d="M3.25 12H5.75V11.375H3.25V12ZM1.375 13.875C1.03125 13.875 0.737083 13.7527 0.4925 13.5081C0.247917 13.2635 0.125417 12.9692 0.125 12.625V1.375C0.125 1.03125 0.2475 0.737083 0.4925 0.4925C0.7375 0.247917 1.03167 0.125417 1.375 0.125H7.625C7.96875 0.125 8.26313 0.2475 8.50813 0.4925C8.75313 0.7375 8.87542 1.03167 8.875 1.375V12.625C8.875 12.9688 8.75271 13.2631 8.50813 13.5081C8.26354 13.7531 7.96917 13.8754 7.625 13.875H1.375ZM1.375 10.75V12.625H7.625V10.75H1.375ZM1.375 9.5H7.625V3.25H1.375V9.5ZM1.375 2H7.625V1.375H1.375V2Z" fill="#2E624B"/>
</svg>
