<svg width="12" height="14" viewBox="0 0 12 14" fill="none" xmlns="http://www.w3.org/2000/svg">
<path d="M1.625 13.875C1.28125 13.875 0.987083 13.7527 0.7425 13.5081C0.497917 13.2635 0.375417 12.9692 0.375 12.625V1.375C0.375 1.03125 0.4975 0.737083 0.7425 0.4925C0.9875 0.247917 1.28167 0.125417 1.625 0.125H10.375C10.7188 0.125 11.0131 0.2475 11.2581 0.4925C11.5031 0.7375 11.6254 1.03167 11.625 1.375V12.625C11.625 12.9688 11.5027 13.2631 11.2581 13.5081C11.0135 13.7531 10.7192 13.8754 10.375 13.875H1.625ZM1.625 10.75V12.625H10.375V10.75H1.625ZM4.75 12H7.25V11.375H4.75V12ZM1.625 9.5H10.375V3.25H1.625V9.5ZM1.625 2H10.375V1.375H1.625V2Z" fill="black"/>
</svg>
